# MagicaVoxel @ Ephtracy

# group
o 

# material
mtllib Ground4.mtl
usemtl palette

# normals
vn -1 0 0
vn 1 0 0
vn 0 0 1
vn 0 0 -1
vn 0 -1 0
vn 0 1 0

# texcoords
vt 0.306641 0.5
vt 0.720703 0.5
vt 0.736328 0.5
vt 0.767578 0.5
vt 0.794922 0.5
vt 0.986328 0.5

# verts
v -2 0 2
v -2 0 -2
v -2 0.1 1.9
v -2 0.1 -1.9
v -2 3.9 1.9
v -2 3.9 -1.9
v -2 4 2
v -2 4 -2
v -1.9 0.1 1.9
v -1.9 0.1 -1.9
v -1.9 0.2 1.8
v -1.9 0.2 -1.8
v -1.9 3.8 1.8
v -1.9 3.8 -1.8
v -1.9 3.9 1.9
v -1.9 3.9 -1.9
v -1.8 0.2 1.8
v -1.8 0.2 -1.8
v -1.8 3.8 1.8
v -1.8 3.8 -1.8
v 1.5 0.4 1.4
v 1.5 0.4 -1.4
v 1.5 0.9 1.4
v 1.5 0.9 -1.4
v 1.6 0.3 1.5
v 1.6 0.3 -1.5
v 1.6 0.4 1.5
v 1.6 0.4 -1.5
v 1.7 0.2 1.6
v 1.7 0.2 -1.6
v 1.7 0.3 1.6
v 1.7 0.3 -1.6
v 1.8 0.1 1.7
v 1.8 0.1 -1.7
v 1.8 0.2 1.9
v 1.8 0.2 1.8
v 1.8 0.2 1.7
v 1.8 0.2 -1.7
v 1.8 0.2 -1.8
v 1.8 0.2 -1.9
v 1.8 3.8 1.9
v 1.8 3.8 1.8
v 1.8 3.8 -1.8
v 1.8 3.8 -1.9
v 1.9 0 1.9
v 1.9 0 -1.9
v 1.9 0.1 2
v 1.9 0.1 1.9
v 1.9 0.1 -1.9
v 1.9 0.1 -2
v 1.9 3.9 2
v 1.9 3.9 1.9
v 1.9 3.9 -1.9
v 1.9 3.9 -2
v -1.9 0 1.9
v -1.9 0 -1.9
v -1.9 0.1 2
v -1.9 0.1 1.9
v -1.9 0.1 -1.9
v -1.9 0.1 -2
v -1.9 3.9 2
v -1.9 3.9 1.9
v -1.9 3.9 -1.9
v -1.9 3.9 -2
v -1.8 0.1 1.7
v -1.8 0.1 -1.7
v -1.8 0.2 1.9
v -1.8 0.2 1.8
v -1.8 0.2 1.7
v -1.8 0.2 -1.7
v -1.8 0.2 -1.8
v -1.8 0.2 -1.9
v -1.8 3.8 1.9
v -1.8 3.8 1.8
v -1.8 3.8 -1.8
v -1.8 3.8 -1.9
v -1.7 0.2 1.6
v -1.7 0.2 -1.6
v -1.7 0.3 1.6
v -1.7 0.3 -1.6
v -1.6 0.3 1.5
v -1.6 0.3 -1.5
v -1.6 0.4 1.5
v -1.6 0.4 -1.5
v -1.5 0.4 1.4
v -1.5 0.4 -1.4
v -1.5 0.9 1.4
v -1.5 0.9 -1.4
v 1.8 0.2 1.8
v 1.8 0.2 -1.8
v 1.8 3.8 1.8
v 1.8 3.8 -1.8
v 1.9 0.1 1.9
v 1.9 0.1 -1.9
v 1.9 0.2 1.8
v 1.9 0.2 -1.8
v 1.9 3.8 1.8
v 1.9 3.8 -1.8
v 1.9 3.9 1.9
v 1.9 3.9 -1.9
v 2 0 2
v 2 0 -2
v 2 0.1 1.9
v 2 0.1 -1.9
v 2 3.9 1.9
v 2 3.9 -1.9
v 2 4 2
v 2 4 -2
v -2 0 2
v -2 4 2
v -1.9 0.1 2
v -1.9 3.9 2
v 1.9 0.1 2
v 1.9 3.9 2
v 2 0 2
v 2 4 2
v -1.9 0.1 1.9
v -1.9 3.9 1.9
v -1.8 0.2 1.9
v -1.8 3.8 1.9
v 1.8 0.2 1.9
v 1.8 3.8 1.9
v 1.9 0.1 1.9
v 1.9 3.9 1.9
v -1.8 0.2 1.8
v -1.8 3.8 1.8
v 1.8 0.2 1.8
v 1.8 3.8 1.8
v -1.5 0.4 -1.4
v -1.5 0.9 -1.4
v 1.5 0.4 -1.4
v 1.5 0.9 -1.4
v -1.6 0.3 -1.5
v -1.6 0.4 -1.5
v 1.6 0.3 -1.5
v 1.6 0.4 -1.5
v -1.7 0.2 -1.6
v -1.7 0.3 -1.6
v 1.7 0.2 -1.6
v 1.7 0.3 -1.6
v -1.8 0.1 -1.7
v -1.8 0.2 -1.7
v -1.7 0.2 -1.7
v 1.7 0.2 -1.7
v 1.8 0.1 -1.7
v 1.8 0.2 -1.7
v -1.9 0.2 -1.8
v -1.9 3.8 -1.8
v -1.8 0.2 -1.8
v -1.8 3.8 -1.8
v 1.8 0.2 -1.8
v 1.8 3.8 -1.8
v 1.9 0.2 -1.8
v 1.9 3.8 -1.8
v -2 0.1 -1.9
v -2 3.9 -1.9
v -1.9 0 -1.9
v -1.9 0.1 -1.9
v -1.9 3.9 -1.9
v 1.9 0 -1.9
v 1.9 0.1 -1.9
v 1.9 3.9 -1.9
v 2 0.1 -1.9
v 2 3.9 -1.9
v -2 0.1 1.9
v -2 3.9 1.9
v -1.9 0 1.9
v -1.9 0.1 1.9
v -1.9 3.9 1.9
v 1.9 0 1.9
v 1.9 0.1 1.9
v 1.9 3.9 1.9
v 2 0.1 1.9
v 2 3.9 1.9
v -1.9 0.2 1.8
v -1.9 3.8 1.8
v -1.8 0.2 1.8
v -1.8 3.8 1.8
v 1.8 0.2 1.8
v 1.8 3.8 1.8
v 1.9 0.2 1.8
v 1.9 3.8 1.8
v -1.8 0.1 1.7
v -1.8 0.2 1.7
v -1.7 0.2 1.7
v 1.7 0.2 1.7
v 1.8 0.1 1.7
v 1.8 0.2 1.7
v -1.7 0.2 1.6
v -1.7 0.3 1.6
v 1.7 0.2 1.6
v 1.7 0.3 1.6
v -1.6 0.3 1.5
v -1.6 0.4 1.5
v 1.6 0.3 1.5
v 1.6 0.4 1.5
v -1.5 0.4 1.4
v -1.5 0.9 1.4
v 1.5 0.4 1.4
v 1.5 0.9 1.4
v -1.8 0.2 -1.8
v -1.8 3.8 -1.8
v 1.8 0.2 -1.8
v 1.8 3.8 -1.8
v -1.9 0.1 -1.9
v -1.9 3.9 -1.9
v -1.8 0.2 -1.9
v -1.8 3.8 -1.9
v 1.8 0.2 -1.9
v 1.8 3.8 -1.9
v 1.9 0.1 -1.9
v 1.9 3.9 -1.9
v -2 0 -2
v -2 4 -2
v -1.9 0.1 -2
v -1.9 3.9 -2
v 1.9 0.1 -2
v 1.9 3.9 -2
v 2 0 -2
v 2 4 -2
v -2 0 2
v 2 0 2
v -1.9 0 1.9
v 1.9 0 1.9
v -1.9 0 -1.9
v 1.9 0 -1.9
v -2 0 -2
v 2 0 -2
v -1.9 0.1 1.9
v 1.9 0.1 1.9
v -1.8 0.1 1.8
v 1.8 0.1 1.8
v -1.8 0.1 1.7
v 1.8 0.1 1.7
v -1.8 0.1 -1.7
v 1.8 0.1 -1.7
v -1.8 0.1 -1.8
v 1.8 0.1 -1.8
v -1.9 0.1 -1.9
v 1.9 0.1 -1.9
v -1.8 0.2 1.7
v -1.7 0.2 1.7
v 1.7 0.2 1.7
v 1.8 0.2 1.7
v -1.7 0.2 1.6
v 1.7 0.2 1.6
v -1.7 0.2 -1.6
v 1.7 0.2 -1.6
v -1.8 0.2 -1.7
v -1.7 0.2 -1.7
v 1.7 0.2 -1.7
v 1.8 0.2 -1.7
v -1.7 0.3 1.6
v 1.7 0.3 1.6
v -1.6 0.3 1.5
v 1.6 0.3 1.5
v -1.6 0.3 -1.5
v 1.6 0.3 -1.5
v -1.7 0.3 -1.6
v 1.7 0.3 -1.6
v -1.6 0.4 1.5
v 1.6 0.4 1.5
v -1.5 0.4 1.4
v 1.5 0.4 1.4
v -1.5 0.4 -1.4
v 1.5 0.4 -1.4
v -1.6 0.4 -1.5
v 1.6 0.4 -1.5
v -1.5 0.9 1.4
v 1.5 0.9 1.4
v -1.5 0.9 -1.4
v 1.5 0.9 -1.4
v -1.8 3.8 1.9
v 1.8 3.8 1.9
v -1.9 3.8 1.8
v -1.8 3.8 1.8
v 1.8 3.8 1.8
v 1.9 3.8 1.8
v -1.9 3.8 -1.8
v -1.8 3.8 -1.8
v 1.8 3.8 -1.8
v 1.9 3.8 -1.8
v -1.8 3.8 -1.9
v 1.8 3.8 -1.9
v -1.9 3.9 2
v 1.9 3.9 2
v -2 3.9 1.9
v -1.9 3.9 1.9
v 1.9 3.9 1.9
v 2 3.9 1.9
v -2 3.9 -1.9
v -1.9 3.9 -1.9
v 1.9 3.9 -1.9
v 2 3.9 -1.9
v -1.9 3.9 -2
v 1.9 3.9 -2
v -1.9 0.1 2
v 1.9 0.1 2
v -2 0.1 1.9
v -1.9 0.1 1.9
v 1.9 0.1 1.9
v 2 0.1 1.9
v -2 0.1 -1.9
v -1.9 0.1 -1.9
v 1.9 0.1 -1.9
v 2 0.1 -1.9
v -1.9 0.1 -2
v 1.9 0.1 -2
v -1.8 0.2 1.9
v 1.8 0.2 1.9
v -1.9 0.2 1.8
v -1.8 0.2 1.8
v 1.8 0.2 1.8
v 1.9 0.2 1.8
v -1.9 0.2 -1.8
v -1.8 0.2 -1.8
v 1.8 0.2 -1.8
v 1.9 0.2 -1.8
v -1.8 0.2 -1.9
v 1.8 0.2 -1.9
v -2 4 2
v 2 4 2
v -1.9 4 1.9
v 1.9 4 1.9
v -1.9 4 -1.9
v 1.9 4 -1.9
v -2 4 -2
v 2 4 -2

# faces
f 3/2/1 2/2/1 1/2/1
f 4/2/1 2/2/1 3/2/1
f 5/2/1 3/2/1 1/2/1
f 6/2/1 2/2/1 4/2/1
f 7/2/1 5/2/1 1/2/1
f 7/2/1 6/2/1 5/2/1
f 8/2/1 2/2/1 6/2/1
f 8/2/1 6/2/1 7/2/1
f 11/4/1 10/4/1 9/4/1
f 12/4/1 10/4/1 11/4/1
f 13/4/1 11/4/1 9/4/1
f 14/4/1 10/4/1 12/4/1
f 15/4/1 13/4/1 9/4/1
f 15/4/1 14/4/1 13/4/1
f 16/4/1 10/4/1 14/4/1
f 16/4/1 14/4/1 15/4/1
f 19/5/1 18/5/1 17/5/1
f 20/5/1 18/5/1 19/5/1
f 23/6/1 22/6/1 21/6/1
f 24/6/1 22/6/1 23/6/1
f 27/6/1 26/6/1 25/6/1
f 28/6/1 26/6/1 27/6/1
f 31/5/1 30/5/1 29/5/1
f 32/5/1 30/5/1 31/5/1
f 37/4/1 34/4/1 33/4/1
f 38/4/1 34/4/1 37/4/1
f 41/4/1 36/4/1 35/4/1
f 42/4/1 36/4/1 41/4/1
f 43/4/1 40/4/1 39/4/1
f 44/4/1 40/4/1 43/4/1
f 48/2/1 46/2/1 45/2/1
f 49/2/1 46/2/1 48/2/1
f 51/2/1 48/2/1 47/2/1
f 52/2/1 48/2/1 51/2/1
f 53/2/1 50/2/1 49/2/1
f 54/2/1 50/2/1 53/2/1
f 55/2/2 56/2/2 58/2/2
f 58/2/2 56/2/2 59/2/2
f 57/2/2 58/2/2 61/2/2
f 61/2/2 58/2/2 62/2/2
f 59/2/2 60/2/2 63/2/2
f 63/2/2 60/2/2 64/2/2
f 65/4/2 66/4/2 69/4/2
f 69/4/2 66/4/2 70/4/2
f 67/4/2 68/4/2 73/4/2
f 73/4/2 68/4/2 74/4/2
f 71/4/2 72/4/2 75/4/2
f 75/4/2 72/4/2 76/4/2
f 77/5/2 78/5/2 79/5/2
f 79/5/2 78/5/2 80/5/2
f 81/6/2 82/6/2 83/6/2
f 83/6/2 82/6/2 84/6/2
f 85/6/2 86/6/2 87/6/2
f 87/6/2 86/6/2 88/6/2
f 89/5/2 90/5/2 91/5/2
f 91/5/2 90/5/2 92/5/2
f 93/4/2 94/4/2 95/4/2
f 95/4/2 94/4/2 96/4/2
f 93/4/2 95/4/2 97/4/2
f 96/4/2 94/4/2 98/4/2
f 93/4/2 97/4/2 99/4/2
f 97/4/2 98/4/2 99/4/2
f 98/4/2 94/4/2 100/4/2
f 99/4/2 98/4/2 100/4/2
f 101/2/2 102/2/2 103/2/2
f 103/2/2 102/2/2 104/2/2
f 101/2/2 103/2/2 105/2/2
f 104/2/2 102/2/2 106/2/2
f 101/2/2 105/2/2 107/2/2
f 105/2/2 106/2/2 107/2/2
f 106/2/2 102/2/2 108/2/2
f 107/2/2 106/2/2 108/2/2
f 111/2/3 110/2/3 109/2/3
f 112/2/3 110/2/3 111/2/3
f 113/2/3 111/2/3 109/2/3
f 114/2/3 110/2/3 112/2/3
f 115/2/3 113/2/3 109/2/3
f 115/2/3 114/2/3 113/2/3
f 116/2/3 110/2/3 114/2/3
f 116/2/3 114/2/3 115/2/3
f 119/4/3 118/4/3 117/4/3
f 120/4/3 118/4/3 119/4/3
f 121/4/3 119/4/3 117/4/3
f 122/4/3 118/4/3 120/4/3
f 123/4/3 121/4/3 117/4/3
f 123/4/3 122/4/3 121/4/3
f 124/4/3 118/4/3 122/4/3
f 124/4/3 122/4/3 123/4/3
f 127/5/3 126/5/3 125/5/3
f 128/5/3 126/5/3 127/5/3
f 131/6/3 130/6/3 129/6/3
f 132/6/3 130/6/3 131/6/3
f 135/6/3 134/6/3 133/6/3
f 136/6/3 134/6/3 135/6/3
f 139/6/3 138/6/3 137/6/3
f 140/6/3 138/6/3 139/6/3
f 143/6/3 142/6/3 141/6/3
f 144/6/3 143/6/3 141/6/3
f 145/6/3 144/6/3 141/6/3
f 146/6/3 144/6/3 145/6/3
f 149/4/3 148/4/3 147/4/3
f 150/4/3 148/4/3 149/4/3
f 153/4/3 152/4/3 151/4/3
f 154/4/3 152/4/3 153/4/3
f 158/2/3 156/2/3 155/2/3
f 159/2/3 156/2/3 158/2/3
f 160/2/3 158/2/3 157/2/3
f 161/2/3 158/2/3 160/2/3
f 163/2/3 162/2/3 161/2/3
f 164/2/3 162/2/3 163/2/3
f 165/2/4 166/2/4 168/2/4
f 168/2/4 166/2/4 169/2/4
f 167/2/4 168/2/4 170/2/4
f 170/2/4 168/2/4 171/2/4
f 171/2/4 172/2/4 173/2/4
f 173/2/4 172/2/4 174/2/4
f 175/4/4 176/4/4 177/4/4
f 177/4/4 176/4/4 178/4/4
f 179/4/4 180/4/4 181/4/4
f 181/4/4 180/4/4 182/4/4
f 183/6/4 184/6/4 185/6/4
f 183/6/4 185/6/4 186/6/4
f 183/6/4 186/6/4 187/6/4
f 187/6/4 186/6/4 188/6/4
f 189/6/4 190/6/4 191/6/4
f 191/6/4 190/6/4 192/6/4
f 193/6/4 194/6/4 195/6/4
f 195/6/4 194/6/4 196/6/4
f 197/6/4 198/6/4 199/6/4
f 199/6/4 198/6/4 200/6/4
f 201/5/4 202/5/4 203/5/4
f 203/5/4 202/5/4 204/5/4
f 205/4/4 206/4/4 207/4/4
f 207/4/4 206/4/4 208/4/4
f 205/4/4 207/4/4 209/4/4
f 208/4/4 206/4/4 210/4/4
f 205/4/4 209/4/4 211/4/4
f 209/4/4 210/4/4 211/4/4
f 210/4/4 206/4/4 212/4/4
f 211/4/4 210/4/4 212/4/4
f 213/2/4 214/2/4 215/2/4
f 215/2/4 214/2/4 216/2/4
f 213/2/4 215/2/4 217/2/4
f 216/2/4 214/2/4 218/2/4
f 213/2/4 217/2/4 219/2/4
f 217/2/4 218/2/4 219/2/4
f 218/2/4 214/2/4 220/2/4
f 219/2/4 218/2/4 220/2/4
f 223/2/5 222/2/5 221/2/5
f 224/2/5 222/2/5 223/2/5
f 225/2/5 223/2/5 221/2/5
f 226/2/5 222/2/5 224/2/5
f 227/2/5 225/2/5 221/2/5
f 227/2/5 226/2/5 225/2/5
f 228/2/5 222/2/5 226/2/5
f 228/2/5 226/2/5 227/2/5
f 231/4/5 230/4/5 229/4/5
f 232/4/5 230/4/5 231/4/5
f 233/4/5 231/4/5 229/4/5
f 233/6/5 232/6/5 231/6/5
f 234/4/5 230/4/5 232/4/5
f 234/6/5 232/6/5 233/6/5
f 235/4/5 233/4/5 229/4/5
f 236/4/5 230/4/5 234/4/5
f 237/4/5 235/4/5 229/4/5
f 237/6/5 236/6/5 235/6/5
f 238/4/5 230/4/5 236/4/5
f 238/6/5 236/6/5 237/6/5
f 239/4/5 237/4/5 229/4/5
f 239/4/5 238/4/5 237/4/5
f 240/4/5 230/4/5 238/4/5
f 240/4/5 238/4/5 239/4/5
f 245/5/5 242/5/5 241/5/5
f 245/6/5 243/6/5 242/6/5
f 246/5/5 244/5/5 243/5/5
f 246/6/5 243/6/5 245/6/5
f 247/5/5 245/5/5 241/5/5
f 248/5/5 244/5/5 246/5/5
f 249/5/5 247/5/5 241/5/5
f 250/6/5 248/6/5 247/6/5
f 250/5/5 247/5/5 249/5/5
f 251/5/5 244/5/5 248/5/5
f 251/6/5 248/6/5 250/6/5
f 252/5/5 244/5/5 251/5/5
f 255/6/5 254/6/5 253/6/5
f 256/6/5 254/6/5 255/6/5
f 257/6/5 255/6/5 253/6/5
f 258/6/5 254/6/5 256/6/5
f 259/6/5 257/6/5 253/6/5
f 259/6/5 258/6/5 257/6/5
f 260/6/5 254/6/5 258/6/5
f 260/6/5 258/6/5 259/6/5
f 263/6/5 262/6/5 261/6/5
f 264/6/5 262/6/5 263/6/5
f 265/6/5 263/6/5 261/6/5
f 266/6/5 262/6/5 264/6/5
f 267/6/5 265/6/5 261/6/5
f 267/6/5 266/6/5 265/6/5
f 268/6/5 262/6/5 266/6/5
f 268/6/5 266/6/5 267/6/5
f 271/6/5 270/6/5 269/6/5
f 272/6/5 270/6/5 271/6/5
f 276/4/5 274/4/5 273/4/5
f 277/4/5 274/4/5 276/4/5
f 279/4/5 276/4/5 275/4/5
f 280/4/5 276/4/5 279/4/5
f 281/4/5 278/4/5 277/4/5
f 282/4/5 278/4/5 281/4/5
f 283/4/5 281/4/5 280/4/5
f 284/4/5 281/4/5 283/4/5
f 288/2/5 286/2/5 285/2/5
f 289/2/5 286/2/5 288/2/5
f 291/2/5 288/2/5 287/2/5
f 292/2/5 288/2/5 291/2/5
f 293/2/5 290/2/5 289/2/5
f 294/2/5 290/2/5 293/2/5
f 295/2/5 293/2/5 292/2/5
f 296/2/5 293/2/5 295/2/5
f 297/2/6 298/2/6 300/2/6
f 300/2/6 298/2/6 301/2/6
f 299/2/6 300/2/6 303/2/6
f 303/2/6 300/2/6 304/2/6
f 301/2/6 302/2/6 305/2/6
f 305/2/6 302/2/6 306/2/6
f 304/2/6 305/2/6 307/2/6
f 307/2/6 305/2/6 308/2/6
f 309/4/6 310/4/6 312/4/6
f 312/4/6 310/4/6 313/4/6
f 311/4/6 312/4/6 315/4/6
f 315/4/6 312/4/6 316/4/6
f 313/4/6 314/4/6 317/4/6
f 317/4/6 314/4/6 318/4/6
f 316/4/6 317/4/6 319/4/6
f 319/4/6 317/4/6 320/4/6
f 321/2/6 322/2/6 323/2/6
f 323/2/6 322/2/6 324/2/6
f 321/2/6 323/2/6 325/2/6
f 323/3/6 324/3/6 325/3/6
f 324/2/6 322/2/6 326/2/6
f 325/3/6 324/3/6 326/3/6
f 321/2/6 325/2/6 327/2/6
f 325/2/6 326/2/6 327/2/6
f 326/2/6 322/2/6 328/2/6
f 327/2/6 326/2/6 328/2/6
