# MagicaVoxel @ Ephtracy

# group
o 

# material
mtllib gun.mtl
usemtl palette

# normals
vn -1 0 0
vn 1 0 0
vn 0 0 1
vn 0 0 -1
vn 0 -1 0
vn 0 1 0

# texcoords
vt 0.365234 0.5
vt 0.927734 0.5
vt 0.958984 0.5

# verts
v -0.6 0.8 -0.2
v -0.6 0.8 -0.6
v -0.6 2.5 -0.2
v -0.6 2.5 -0.6
v -0.5 0.8 -0.1
v -0.5 0.8 -0.2
v -0.5 0.8 -0.6
v -0.5 0.8 -0.7
v -0.5 2.5 -0.1
v -0.5 2.5 -0.2
v -0.5 2.5 -0.6
v -0.5 2.5 -0.7
v -0.4 0.5 -0.1
v -0.4 0.5 -0.7
v -0.4 0.8 -2.38419e-07
v -0.4 0.8 -0.1
v -0.4 0.8 -0.7
v -0.4 0.8 -0.8
v -0.4 2.5 -2.38419e-07
v -0.4 2.5 -0.1
v -0.4 2.5 -0.7
v -0.4 2.5 -0.8
v -0.3 0 2
v -0.3 0 -0.6
v -0.3 0.2 2
v -0.3 0.2 1.7
v -0.3 0.2 0.5
v -0.3 0.3 2
v -0.3 0.3 1.7
v -0.3 0.3 0.5
v -0.3 0.3 -0.2
v -0.3 0.4 0.5
v -0.3 0.4 -0.2
v -0.3 0.5 -0.2
v -0.3 0.5 -0.6
v -0.3 0.8 0.0999999
v -0.3 0.8 -2.38419e-07
v -0.3 0.8 -0.8
v -0.3 0.8 -0.9
v -0.3 2.5 0.0999999
v -0.3 2.5 -2.38419e-07
v -0.3 2.5 -0.8
v -0.3 2.5 -0.9
v 0.2 0.9 -2.38419e-07
v 0.2 0.9 -0.1
v 0.2 0.9 -0.7
v 0.2 0.9 -0.8
v 0.2 2.5 -2.38419e-07
v 0.2 2.5 -0.1
v 0.2 2.5 -0.7
v 0.2 2.5 -0.8
v 0.3 0.9 -0.1
v 0.3 0.9 -0.2
v 0.3 0.9 -0.6
v 0.3 0.9 -0.7
v 0.3 2.5 -0.1
v 0.3 2.5 -0.2
v 0.3 2.5 -0.6
v 0.3 2.5 -0.7
v 0.4 0.9 -0.2
v 0.4 0.9 -0.6
v 0.4 2.5 -0.2
v 0.4 2.5 -0.6
v -0.4 0.9 -0.2
v -0.4 0.9 -0.6
v -0.4 2.5 -0.2
v -0.4 2.5 -0.6
v -0.3 0.9 -0.1
v -0.3 0.9 -0.2
v -0.3 0.9 -0.6
v -0.3 0.9 -0.7
v -0.3 2.5 -0.1
v -0.3 2.5 -0.2
v -0.3 2.5 -0.6
v -0.3 2.5 -0.7
v -0.2 0.9 -2.38419e-07
v -0.2 0.9 -0.1
v -0.2 0.9 -0.7
v -0.2 0.9 -0.8
v -0.2 2.5 -2.38419e-07
v -0.2 2.5 -0.1
v -0.2 2.5 -0.7
v -0.2 2.5 -0.8
v 0.3 0 2
v 0.3 0 -0.6
v 0.3 0.2 2
v 0.3 0.2 1.7
v 0.3 0.2 0.5
v 0.3 0.3 2
v 0.3 0.3 1.7
v 0.3 0.3 0.5
v 0.3 0.3 -0.2
v 0.3 0.4 0.5
v 0.3 0.4 -0.2
v 0.3 0.5 -0.2
v 0.3 0.5 -0.6
v 0.3 0.8 0.0999999
v 0.3 0.8 -2.38419e-07
v 0.3 0.8 -0.8
v 0.3 0.8 -0.9
v 0.3 2.5 0.0999999
v 0.3 2.5 -2.38419e-07
v 0.3 2.5 -0.8
v 0.3 2.5 -0.9
v 0.4 0.5 -0.1
v 0.4 0.5 -0.7
v 0.4 0.8 -2.38419e-07
v 0.4 0.8 -0.1
v 0.4 0.8 -0.7
v 0.4 0.8 -0.8
v 0.4 2.5 -2.38419e-07
v 0.4 2.5 -0.1
v 0.4 2.5 -0.7
v 0.4 2.5 -0.8
v 0.5 0.8 -0.1
v 0.5 0.8 -0.2
v 0.5 0.8 -0.6
v 0.5 0.8 -0.7
v 0.5 2.5 -0.1
v 0.5 2.5 -0.2
v 0.5 2.5 -0.6
v 0.5 2.5 -0.7
v 0.6 0.8 -0.2
v 0.6 0.8 -0.6
v 0.6 2.5 -0.2
v 0.6 2.5 -0.6
v -0.3 0 2
v -0.3 0.2 2
v -0.3 0.3 2
v 0.3 0 2
v 0.3 0.2 2
v 0.3 0.3 2
v -0.3 0.2 0.5
v -0.3 0.3 0.5
v -0.3 0.4 0.5
v 0.3 0.2 0.5
v 0.3 0.3 0.5
v 0.3 0.4 0.5
v -0.3 0.8 0.0999999
v -0.3 2.5 0.0999999
v 0.3 0.8 0.0999999
v 0.3 2.5 0.0999999
v -0.4 0.8 -2.38419e-07
v -0.4 2.5 -2.38419e-07
v -0.3 0.8 -2.38419e-07
v -0.3 2.5 -2.38419e-07
v 0.3 0.8 -2.38419e-07
v 0.3 2.5 -2.38419e-07
v 0.4 0.8 -2.38419e-07
v 0.4 2.5 -2.38419e-07
v -0.5 0.8 -0.1
v -0.5 2.5 -0.1
v -0.4 0.5 -0.1
v -0.4 0.8 -0.1
v -0.4 2.5 -0.1
v 0.4 0.5 -0.1
v 0.4 0.8 -0.1
v 0.4 2.5 -0.1
v 0.5 0.8 -0.1
v 0.5 2.5 -0.1
v -0.6 0.8 -0.2
v -0.6 2.5 -0.2
v -0.5 0.8 -0.2
v -0.5 2.5 -0.2
v -0.3 0.4 -0.2
v -0.3 0.5 -0.2
v 0.3 0.4 -0.2
v 0.3 0.5 -0.2
v 0.5 0.8 -0.2
v 0.5 2.5 -0.2
v 0.6 0.8 -0.2
v 0.6 2.5 -0.2
v -0.4 0.9 -0.6
v -0.4 2.5 -0.6
v -0.3 0.9 -0.6
v -0.3 2.5 -0.6
v 0.3 0.9 -0.6
v 0.3 2.5 -0.6
v 0.4 0.9 -0.6
v 0.4 2.5 -0.6
v -0.3 0.9 -0.7
v -0.3 2.5 -0.7
v -0.2 0.9 -0.7
v -0.2 2.5 -0.7
v 0.2 0.9 -0.7
v 0.2 2.5 -0.7
v 0.3 0.9 -0.7
v 0.3 2.5 -0.7
v -0.2 0.9 -0.8
v -0.2 2.5 -0.8
v 0.2 0.9 -0.8
v 0.2 2.5 -0.8
v -0.3 0.2 1.7
v -0.3 0.3 1.7
v 0.3 0.2 1.7
v 0.3 0.3 1.7
v -0.2 0.9 -2.38419e-07
v -0.2 2.5 -2.38419e-07
v 0.2 0.9 -2.38419e-07
v 0.2 2.5 -2.38419e-07
v -0.3 0.9 -0.1
v -0.3 2.5 -0.1
v -0.2 0.9 -0.1
v -0.2 2.5 -0.1
v 0.2 0.9 -0.1
v 0.2 2.5 -0.1
v 0.3 0.9 -0.1
v 0.3 2.5 -0.1
v -0.4 0.9 -0.2
v -0.4 2.5 -0.2
v -0.3 0.9 -0.2
v -0.3 2.5 -0.2
v 0.3 0.9 -0.2
v 0.3 2.5 -0.2
v 0.4 0.9 -0.2
v 0.4 2.5 -0.2
v -0.6 0.8 -0.6
v -0.6 2.5 -0.6
v -0.5 0.8 -0.6
v -0.5 2.5 -0.6
v -0.3 0 -0.6
v -0.3 0.5 -0.6
v 0.3 0 -0.6
v 0.3 0.5 -0.6
v 0.5 0.8 -0.6
v 0.5 2.5 -0.6
v 0.6 0.8 -0.6
v 0.6 2.5 -0.6
v -0.5 0.8 -0.7
v -0.5 2.5 -0.7
v -0.4 0.5 -0.7
v -0.4 0.8 -0.7
v -0.4 2.5 -0.7
v 0.4 0.5 -0.7
v 0.4 0.8 -0.7
v 0.4 2.5 -0.7
v 0.5 0.8 -0.7
v 0.5 2.5 -0.7
v -0.4 0.8 -0.8
v -0.4 2.5 -0.8
v -0.3 0.8 -0.8
v -0.3 2.5 -0.8
v 0.3 0.8 -0.8
v 0.3 2.5 -0.8
v 0.4 0.8 -0.8
v 0.4 2.5 -0.8
v -0.3 0.8 -0.9
v -0.3 2.5 -0.9
v 0.3 0.8 -0.9
v 0.3 2.5 -0.9
v -0.3 0 2
v 0.3 0 2
v -0.3 0 -0.6
v 0.3 0 -0.6
v -0.4 0.5 -0.1
v 0.4 0.5 -0.1
v -0.3 0.5 -0.2
v 0.3 0.5 -0.2
v -0.3 0.5 -0.6
v 0.3 0.5 -0.6
v -0.4 0.5 -0.7
v 0.4 0.5 -0.7
v -0.3 0.8 0.0999999
v 0.3 0.8 0.0999999
v -0.4 0.8 -2.38419e-07
v -0.3 0.8 -2.38419e-07
v 0.3 0.8 -2.38419e-07
v 0.4 0.8 -2.38419e-07
v -0.5 0.8 -0.1
v -0.4 0.8 -0.1
v 0.4 0.8 -0.1
v 0.5 0.8 -0.1
v -0.6 0.8 -0.2
v -0.5 0.8 -0.2
v 0.5 0.8 -0.2
v 0.6 0.8 -0.2
v -0.6 0.8 -0.6
v -0.5 0.8 -0.6
v 0.5 0.8 -0.6
v 0.6 0.8 -0.6
v -0.5 0.8 -0.7
v -0.4 0.8 -0.7
v 0.4 0.8 -0.7
v 0.5 0.8 -0.7
v -0.4 0.8 -0.8
v -0.3 0.8 -0.8
v 0.3 0.8 -0.8
v 0.4 0.8 -0.8
v -0.3 0.8 -0.9
v 0.3 0.8 -0.9
v -0.3 0.2 1.7
v 0.3 0.2 1.7
v -0.3 0.2 0.5
v 0.3 0.2 0.5
v -0.3 0.3 2
v 0.3 0.3 2
v -0.3 0.3 1.7
v 0.3 0.3 1.7
v -0.3 0.4 0.5
v 0.3 0.4 0.5
v -0.3 0.4 -0.2
v 0.3 0.4 -0.2
v -0.2 0.9 -2.38419e-07
v 0.2 0.9 -2.38419e-07
v -0.3 0.9 -0.1
v -0.2 0.9 -0.1
v 0.2 0.9 -0.1
v 0.3 0.9 -0.1
v -0.4 0.9 -0.2
v -0.3 0.9 -0.2
v 0.3 0.9 -0.2
v 0.4 0.9 -0.2
v -0.4 0.9 -0.6
v -0.3 0.9 -0.6
v 0.3 0.9 -0.6
v 0.4 0.9 -0.6
v -0.3 0.9 -0.7
v -0.2 0.9 -0.7
v 0.2 0.9 -0.7
v 0.3 0.9 -0.7
v -0.2 0.9 -0.8
v 0.2 0.9 -0.8
v -0.3 2.5 0.0999999
v 0.3 2.5 0.0999999
v -0.4 2.5 -2.38419e-07
v -0.3 2.5 -2.38419e-07
v -0.2 2.5 -2.38419e-07
v 0.2 2.5 -2.38419e-07
v 0.3 2.5 -2.38419e-07
v 0.4 2.5 -2.38419e-07
v -0.5 2.5 -0.1
v -0.4 2.5 -0.1
v -0.3 2.5 -0.1
v -0.2 2.5 -0.1
v 0.2 2.5 -0.1
v 0.3 2.5 -0.1
v 0.4 2.5 -0.1
v 0.5 2.5 -0.1
v -0.6 2.5 -0.2
v -0.5 2.5 -0.2
v -0.4 2.5 -0.2
v -0.3 2.5 -0.2
v 0.3 2.5 -0.2
v 0.4 2.5 -0.2
v 0.5 2.5 -0.2
v 0.6 2.5 -0.2
v -0.6 2.5 -0.6
v -0.5 2.5 -0.6
v -0.4 2.5 -0.6
v -0.3 2.5 -0.6
v 0.3 2.5 -0.6
v 0.4 2.5 -0.6
v 0.5 2.5 -0.6
v 0.6 2.5 -0.6
v -0.5 2.5 -0.7
v -0.4 2.5 -0.7
v -0.3 2.5 -0.7
v -0.2 2.5 -0.7
v 0.2 2.5 -0.7
v 0.3 2.5 -0.7
v 0.4 2.5 -0.7
v 0.5 2.5 -0.7
v -0.4 2.5 -0.8
v -0.3 2.5 -0.8
v -0.2 2.5 -0.8
v 0.2 2.5 -0.8
v 0.3 2.5 -0.8
v 0.4 2.5 -0.8
v -0.3 2.5 -0.9
v 0.3 2.5 -0.9

# faces
f 3/3/1 2/3/1 1/3/1
f 4/3/1 2/3/1 3/3/1
f 9/3/1 6/3/1 5/3/1
f 10/3/1 6/3/1 9/3/1
f 11/3/1 8/3/1 7/3/1
f 12/3/1 8/3/1 11/3/1
f 16/2/1 14/2/1 13/2/1
f 17/2/1 14/2/1 16/2/1
f 19/3/1 16/3/1 15/3/1
f 20/3/1 16/3/1 19/3/1
f 21/3/1 18/3/1 17/3/1
f 22/3/1 18/3/1 21/3/1
f 25/2/1 24/2/1 23/2/1
f 26/2/1 24/2/1 25/2/1
f 27/2/1 24/2/1 26/2/1
f 28/1/1 26/1/1 25/1/1
f 29/1/1 26/1/1 28/1/1
f 30/2/1 24/2/1 27/2/1
f 31/2/1 24/2/1 30/2/1
f 32/1/1 31/1/1 30/1/1
f 33/2/1 24/2/1 31/2/1
f 33/1/1 31/1/1 32/1/1
f 34/2/1 24/2/1 33/2/1
f 35/2/1 24/2/1 34/2/1
f 40/3/1 37/3/1 36/3/1
f 41/3/1 37/3/1 40/3/1
f 42/3/1 39/3/1 38/3/1
f 43/3/1 39/3/1 42/3/1
f 48/3/1 45/3/1 44/3/1
f 49/3/1 45/3/1 48/3/1
f 50/3/1 47/3/1 46/3/1
f 51/3/1 47/3/1 50/3/1
f 56/3/1 53/3/1 52/3/1
f 57/3/1 53/3/1 56/3/1
f 58/3/1 55/3/1 54/3/1
f 59/3/1 55/3/1 58/3/1
f 62/3/1 61/3/1 60/3/1
f 63/3/1 61/3/1 62/3/1
f 64/3/2 65/3/2 66/3/2
f 66/3/2 65/3/2 67/3/2
f 68/3/2 69/3/2 72/3/2
f 72/3/2 69/3/2 73/3/2
f 70/3/2 71/3/2 74/3/2
f 74/3/2 71/3/2 75/3/2
f 76/3/2 77/3/2 80/3/2
f 80/3/2 77/3/2 81/3/2
f 78/3/2 79/3/2 82/3/2
f 82/3/2 79/3/2 83/3/2
f 84/2/2 85/2/2 86/2/2
f 86/2/2 85/2/2 87/2/2
f 87/2/2 85/2/2 88/2/2
f 86/1/2 87/1/2 89/1/2
f 89/1/2 87/1/2 90/1/2
f 88/2/2 85/2/2 91/2/2
f 91/2/2 85/2/2 92/2/2
f 91/1/2 92/1/2 93/1/2
f 92/2/2 85/2/2 94/2/2
f 93/1/2 92/1/2 94/1/2
f 94/2/2 85/2/2 95/2/2
f 95/2/2 85/2/2 96/2/2
f 97/3/2 98/3/2 101/3/2
f 101/3/2 98/3/2 102/3/2
f 99/3/2 100/3/2 103/3/2
f 103/3/2 100/3/2 104/3/2
f 105/2/2 106/2/2 108/2/2
f 108/2/2 106/2/2 109/2/2
f 107/3/2 108/3/2 111/3/2
f 111/3/2 108/3/2 112/3/2
f 109/3/2 110/3/2 113/3/2
f 113/3/2 110/3/2 114/3/2
f 115/3/2 116/3/2 119/3/2
f 119/3/2 116/3/2 120/3/2
f 117/3/2 118/3/2 121/3/2
f 121/3/2 118/3/2 122/3/2
f 123/3/2 124/3/2 125/3/2
f 125/3/2 124/3/2 126/3/2
f 130/2/3 128/2/3 127/2/3
f 131/1/3 129/1/3 128/1/3
f 131/2/3 128/2/3 130/2/3
f 132/1/3 129/1/3 131/1/3
f 136/2/3 134/2/3 133/2/3
f 137/1/3 135/1/3 134/1/3
f 137/2/3 134/2/3 136/2/3
f 138/1/3 135/1/3 137/1/3
f 141/3/3 140/3/3 139/3/3
f 142/3/3 140/3/3 141/3/3
f 145/3/3 144/3/3 143/3/3
f 146/3/3 144/3/3 145/3/3
f 149/3/3 148/3/3 147/3/3
f 150/3/3 148/3/3 149/3/3
f 154/3/3 152/3/3 151/3/3
f 155/3/3 152/3/3 154/3/3
f 156/2/3 154/2/3 153/2/3
f 157/2/3 154/2/3 156/2/3
f 159/3/3 158/3/3 157/3/3
f 160/3/3 158/3/3 159/3/3
f 163/3/3 162/3/3 161/3/3
f 164/3/3 162/3/3 163/3/3
f 167/2/3 166/2/3 165/2/3
f 168/2/3 166/2/3 167/2/3
f 171/3/3 170/3/3 169/3/3
f 172/3/3 170/3/3 171/3/3
f 175/3/3 174/3/3 173/3/3
f 176/3/3 174/3/3 175/3/3
f 179/3/3 178/3/3 177/3/3
f 180/3/3 178/3/3 179/3/3
f 183/3/3 182/3/3 181/3/3
f 184/3/3 182/3/3 183/3/3
f 187/3/3 186/3/3 185/3/3
f 188/3/3 186/3/3 187/3/3
f 191/3/3 190/3/3 189/3/3
f 192/3/3 190/3/3 191/3/3
f 193/1/4 194/1/4 195/1/4
f 195/1/4 194/1/4 196/1/4
f 197/3/4 198/3/4 199/3/4
f 199/3/4 198/3/4 200/3/4
f 201/3/4 202/3/4 203/3/4
f 203/3/4 202/3/4 204/3/4
f 205/3/4 206/3/4 207/3/4
f 207/3/4 206/3/4 208/3/4
f 209/3/4 210/3/4 211/3/4
f 211/3/4 210/3/4 212/3/4
f 213/3/4 214/3/4 215/3/4
f 215/3/4 214/3/4 216/3/4
f 217/3/4 218/3/4 219/3/4
f 219/3/4 218/3/4 220/3/4
f 221/2/4 222/2/4 223/2/4
f 223/2/4 222/2/4 224/2/4
f 225/3/4 226/3/4 227/3/4
f 227/3/4 226/3/4 228/3/4
f 229/3/4 230/3/4 232/3/4
f 232/3/4 230/3/4 233/3/4
f 231/2/4 232/2/4 234/2/4
f 234/2/4 232/2/4 235/2/4
f 235/3/4 236/3/4 237/3/4
f 237/3/4 236/3/4 238/3/4
f 239/3/4 240/3/4 241/3/4
f 241/3/4 240/3/4 242/3/4
f 243/3/4 244/3/4 245/3/4
f 245/3/4 244/3/4 246/3/4
f 247/3/4 248/3/4 249/3/4
f 249/3/4 248/3/4 250/3/4
f 253/2/5 252/2/5 251/2/5
f 254/2/5 252/2/5 253/2/5
f 257/2/5 256/2/5 255/2/5
f 258/2/5 256/2/5 257/2/5
f 259/2/5 257/2/5 255/2/5
f 260/2/5 256/2/5 258/2/5
f 261/2/5 259/2/5 255/2/5
f 261/2/5 260/2/5 259/2/5
f 262/2/5 256/2/5 260/2/5
f 262/2/5 260/2/5 261/2/5
f 266/3/5 264/3/5 263/3/5
f 267/3/5 264/3/5 266/3/5
f 270/3/5 266/3/5 265/3/5
f 270/3/5 268/3/5 267/3/5
f 270/3/5 267/3/5 266/3/5
f 271/3/5 268/3/5 270/3/5
f 274/3/5 270/3/5 269/3/5
f 275/3/5 272/3/5 271/3/5
f 277/3/5 274/3/5 273/3/5
f 278/3/5 270/3/5 274/3/5
f 278/3/5 274/3/5 277/3/5
f 279/3/5 276/3/5 275/3/5
f 279/3/5 275/3/5 271/3/5
f 280/3/5 276/3/5 279/3/5
f 281/3/5 270/3/5 278/3/5
f 282/3/5 270/3/5 281/3/5
f 283/3/5 279/3/5 271/3/5
f 284/3/5 279/3/5 283/3/5
f 285/3/5 283/3/5 282/3/5
f 286/3/5 283/3/5 285/3/5
f 287/3/5 283/3/5 286/3/5
f 288/3/5 283/3/5 287/3/5
f 289/3/5 287/3/5 286/3/5
f 290/3/5 287/3/5 289/3/5
f 291/2/6 292/2/6 293/2/6
f 293/2/6 292/2/6 294/2/6
f 295/1/6 296/1/6 297/1/6
f 297/1/6 296/1/6 298/1/6
f 299/1/6 300/1/6 301/1/6
f 301/1/6 300/1/6 302/1/6
f 303/3/6 304/3/6 306/3/6
f 306/3/6 304/3/6 307/3/6
f 305/3/6 306/3/6 310/3/6
f 307/3/6 308/3/6 310/3/6
f 306/3/6 307/3/6 310/3/6
f 310/3/6 308/3/6 311/3/6
f 309/3/6 310/3/6 313/3/6
f 311/3/6 312/3/6 313/3/6
f 310/3/6 311/3/6 313/3/6
f 313/3/6 312/3/6 314/3/6
f 314/3/6 312/3/6 315/3/6
f 315/3/6 312/3/6 316/3/6
f 314/3/6 315/3/6 317/3/6
f 317/3/6 315/3/6 318/3/6
f 318/3/6 315/3/6 319/3/6
f 319/3/6 315/3/6 320/3/6
f 318/3/6 319/3/6 321/3/6
f 321/3/6 319/3/6 322/3/6
f 323/3/6 324/3/6 326/3/6
f 326/3/6 324/3/6 327/3/6
f 327/3/6 324/3/6 328/3/6
f 328/3/6 324/3/6 329/3/6
f 325/3/6 326/3/6 332/3/6
f 326/3/6 327/3/6 332/3/6
f 332/3/6 327/3/6 333/3/6
f 333/3/6 327/3/6 334/3/6
f 328/3/6 329/3/6 335/3/6
f 329/3/6 330/3/6 335/3/6
f 335/3/6 330/3/6 336/3/6
f 336/3/6 330/3/6 337/3/6
f 332/3/6 333/3/6 340/3/6
f 331/3/6 332/3/6 340/3/6
f 340/3/6 333/3/6 341/3/6
f 341/3/6 333/3/6 342/3/6
f 337/3/6 338/3/6 343/3/6
f 336/3/6 337/3/6 343/3/6
f 343/3/6 338/3/6 344/3/6
f 344/3/6 338/3/6 345/3/6
f 340/3/6 341/3/6 347/3/6
f 339/3/6 340/3/6 347/3/6
f 347/3/6 341/3/6 348/3/6
f 348/3/6 341/3/6 349/3/6
f 345/3/6 346/3/6 352/3/6
f 344/3/6 345/3/6 352/3/6
f 352/3/6 346/3/6 353/3/6
f 353/3/6 346/3/6 354/3/6
f 349/3/6 350/3/6 355/3/6
f 348/3/6 349/3/6 355/3/6
f 355/3/6 350/3/6 356/3/6
f 356/3/6 350/3/6 357/3/6
f 352/3/6 353/3/6 360/3/6
f 351/3/6 352/3/6 360/3/6
f 360/3/6 353/3/6 361/3/6
f 361/3/6 353/3/6 362/3/6
f 357/3/6 358/3/6 363/3/6
f 356/3/6 357/3/6 363/3/6
f 363/3/6 358/3/6 364/3/6
f 364/3/6 358/3/6 365/3/6
f 360/3/6 361/3/6 366/3/6
f 359/3/6 360/3/6 366/3/6
f 366/3/6 361/3/6 367/3/6
f 367/3/6 361/3/6 368/3/6
f 364/3/6 365/3/6 369/3/6
f 366/3/6 367/3/6 369/3/6
f 365/3/6 366/3/6 369/3/6
f 369/3/6 367/3/6 370/3/6
