# MagicaVoxel @ Ephtracy

# group
o 

# material
mtllib flower_white_tulip.mtl
usemtl palette

# normals
vn -1 0 0
vn 1 0 0
vn 0 0 1
vn 0 0 -1
vn 0 -1 0
vn 0 1 0

# texcoords
vt 0.888672 0.5
vt 0.896484 0.5
vt 0.958984 0.5
vt 0.962891 0.5
vt 0.966797 0.5

# verts
v -0.2 0.5 -0.2
v -0.2 0.5 -0.3
v -0.2 0.6 -0.2
v -0.2 0.6 -0.3
v -0.1 0.4 -0.2
v -0.1 0.4 -0.3
v -0.1 0.5 -0.2
v -0.1 0.5 -0.3
v -0.1 0.7 -0.2
v -0.1 0.7 -0.4
v -0.1 0.8 -0.1
v -0.1 0.8 -0.2
v -0.1 0.8 -0.4
v -0.1 0.9 -0.1
v -0.1 0.9 -0.2
v -0.1 1.1 -0.1
v -0.1 1.1 -0.4
v 0 0 -0.2
v 0 0 -0.3
v 0 0.2 -0.2
v 0 0.2 -0.3
v 0 0.2 -0.4
v 0 0.4 -0.1
v 0 0.4 -0.2
v 0 0.4 -0.3
v 0 0.4 -0.4
v 0 0.4 -0.5
v 0 0.5 0
v 0 0.5 -0.1
v 0 0.5 -0.2
v 0 0.5 -0.3
v 0 0.5 -0.5
v 0 0.6 0
v 0 0.6 -0.2
v 0 0.6 -0.3
v 0 0.7 -0.1
v 0 0.7 -0.2
v 0 0.7 -0.3
v 0 0.8 -0.1
v 0 0.8 -0.2
v 0.1 1 -0.2
v 0.1 1 -0.3
v 0.1 1.1 -0.2
v 0.1 1.1 -0.3
v 0 1 -0.2
v 0 1 -0.3
v 0 1.1 -0.2
v 0 1.1 -0.3
v 0.1 0 -0.2
v 0.1 0 -0.3
v 0.1 0.2 -0.2
v 0.1 0.2 -0.3
v 0.1 0.2 -0.4
v 0.1 0.3 -0.2
v 0.1 0.3 -0.3
v 0.1 0.4 -0.1
v 0.1 0.4 -0.2
v 0.1 0.4 -0.3
v 0.1 0.4 -0.4
v 0.1 0.4 -0.5
v 0.1 0.5 0
v 0.1 0.5 -0.1
v 0.1 0.5 -0.2
v 0.1 0.5 -0.3
v 0.1 0.5 -0.5
v 0.1 0.6 0
v 0.1 0.6 -0.2
v 0.1 0.6 -0.3
v 0.1 0.7 -0.3
v 0.1 0.7 -0.4
v 0.1 0.8 -0.3
v 0.1 0.8 -0.4
v 0.2 0.3 -0.2
v 0.2 0.3 -0.3
v 0.2 0.4 -0.2
v 0.2 0.4 -0.3
v 0.2 0.6 -0.2
v 0.2 0.6 -0.3
v 0.2 0.7 -0.1
v 0.2 0.7 -0.2
v 0.2 0.7 -0.3
v 0.2 0.8 -0.1
v 0.2 0.8 -0.2
v 0.2 0.8 -0.3
v 0.2 0.8 -0.4
v 0.2 1.1 -0.1
v 0.2 1.1 -0.4
v 0.3 0.4 -0.2
v 0.3 0.4 -0.3
v 0.3 0.5 -0.2
v 0.3 0.5 -0.3
v 0 0.5 0
v 0 0.6 0
v 0.1 0.5 0
v 0.1 0.6 0
v -0.1 0.8 -0.1
v -0.1 0.9 -0.1
v -0.1 1.1 -0.1
v 0 0.4 -0.1
v 0 0.5 -0.1
v 0 0.7 -0.1
v 0 0.8 -0.1
v 0 0.9 -0.1
v 0.1 0.4 -0.1
v 0.1 0.5 -0.1
v 0.2 0.7 -0.1
v 0.2 0.8 -0.1
v 0.2 1.1 -0.1
v -0.2 0.5 -0.2
v -0.2 0.6 -0.2
v -0.1 0.4 -0.2
v -0.1 0.5 -0.2
v -0.1 0.7 -0.2
v -0.1 0.8 -0.2
v 0 0 -0.2
v 0 0.2 -0.2
v 0 0.4 -0.2
v 0 0.5 -0.2
v 0 0.6 -0.2
v 0 0.7 -0.2
v 0 0.8 -0.2
v 0.1 0 -0.2
v 0.1 0.2 -0.2
v 0.1 0.3 -0.2
v 0.1 0.4 -0.2
v 0.1 0.5 -0.2
v 0.1 0.6 -0.2
v 0.2 0.3 -0.2
v 0.2 0.4 -0.2
v 0.2 0.5 -0.2
v 0.2 0.6 -0.2
v 0.2 0.7 -0.2
v 0.3 0.4 -0.2
v 0.3 0.5 -0.2
v 0 1 -0.3
v 0 1.1 -0.3
v 0.1 1 -0.3
v 0.1 1.1 -0.3
v 0 1 -0.2
v 0 1.1 -0.2
v 0.1 1 -0.2
v 0.1 1.1 -0.2
v -0.2 0.5 -0.3
v -0.2 0.6 -0.3
v -0.1 0.4 -0.3
v -0.1 0.5 -0.3
v 0 0 -0.3
v 0 0.2 -0.3
v 0 0.4 -0.3
v 0 0.5 -0.3
v 0 0.6 -0.3
v 0 0.7 -0.3
v 0.1 0 -0.3
v 0.1 0.2 -0.3
v 0.1 0.3 -0.3
v 0.1 0.4 -0.3
v 0.1 0.5 -0.3
v 0.1 0.6 -0.3
v 0.1 0.7 -0.3
v 0.1 0.8 -0.3
v 0.2 0.3 -0.3
v 0.2 0.4 -0.3
v 0.2 0.5 -0.3
v 0.2 0.6 -0.3
v 0.2 0.7 -0.3
v 0.2 0.8 -0.3
v 0.3 0.4 -0.3
v 0.3 0.5 -0.3
v -0.1 0.7 -0.4
v -0.1 0.8 -0.4
v -0.1 1.1 -0.4
v 0 0.2 -0.4
v 0 0.4 -0.4
v 0 0.8 -0.4
v 0 0.9 -0.4
v 0.1 0.2 -0.4
v 0.1 0.4 -0.4
v 0.1 0.7 -0.4
v 0.1 0.8 -0.4
v 0.1 0.9 -0.4
v 0.2 0.8 -0.4
v 0.2 1.1 -0.4
v 0 0.4 -0.5
v 0 0.5 -0.5
v 0.1 0.4 -0.5
v 0.1 0.5 -0.5
v 0 0 -0.2
v 0.1 0 -0.2
v 0 0 -0.3
v 0.1 0 -0.3
v 0 0.2 -0.3
v 0.1 0.2 -0.3
v 0 0.2 -0.4
v 0.1 0.2 -0.4
v 0.1 0.3 -0.2
v 0.2 0.3 -0.2
v 0.1 0.3 -0.3
v 0.2 0.3 -0.3
v 0 0.4 -0.1
v 0.1 0.4 -0.1
v -0.1 0.4 -0.2
v 0 0.4 -0.2
v 0.1 0.4 -0.2
v 0.2 0.4 -0.2
v 0.3 0.4 -0.2
v -0.1 0.4 -0.3
v 0 0.4 -0.3
v 0.2 0.4 -0.3
v 0.3 0.4 -0.3
v 0 0.4 -0.4
v 0.1 0.4 -0.4
v 0 0.4 -0.5
v 0.1 0.4 -0.5
v 0 0.5 0
v 0.1 0.5 0
v 0 0.5 -0.1
v 0.1 0.5 -0.1
v -0.2 0.5 -0.2
v -0.1 0.5 -0.2
v -0.2 0.5 -0.3
v -0.1 0.5 -0.3
v 0.1 0.6 -0.2
v 0.2 0.6 -0.2
v 0.1 0.6 -0.3
v 0.2 0.6 -0.3
v 0 0.7 -0.1
v 0.2 0.7 -0.1
v -0.1 0.7 -0.2
v 0 0.7 -0.2
v 0.2 0.7 -0.2
v 0 0.7 -0.3
v 0.1 0.7 -0.3
v -0.1 0.7 -0.4
v 0.1 0.7 -0.4
v -0.1 0.8 -0.1
v 0 0.8 -0.1
v -0.1 0.8 -0.2
v 0 0.8 -0.2
v 0.1 0.8 -0.3
v 0.2 0.8 -0.3
v 0.1 0.8 -0.4
v 0.2 0.8 -0.4
v 0.1 0.5 -0.2
v 0.2 0.5 -0.2
v 0.3 0.5 -0.2
v 0 0.5 -0.3
v 0.1 0.5 -0.3
v 0.2 0.5 -0.3
v 0.3 0.5 -0.3
v 0 0.5 -0.5
v 0.1 0.5 -0.5
v 0 0.6 0
v 0.1 0.6 0
v -0.2 0.6 -0.2
v 0 0.6 -0.2
v 0.1 0.6 -0.2
v -0.2 0.6 -0.3
v 0 0.6 -0.3
v 0 1 -0.2
v 0.1 1 -0.2
v 0 1 -0.3
v 0.1 1 -0.3
v -0.1 1.1 -0.1
v 0.2 1.1 -0.1
v 0 1.1 -0.2
v 0.1 1.1 -0.2
v 0 1.1 -0.3
v 0.1 1.1 -0.3
v -0.1 1.1 -0.4
v 0.2 1.1 -0.4

# faces
f 3/1/1 2/1/1 1/1/1
f 4/1/1 2/1/1 3/1/1
f 7/2/1 6/2/1 5/2/1
f 8/2/1 6/2/1 7/2/1
f 12/5/1 10/5/1 9/5/1
f 13/5/1 10/5/1 12/5/1
f 14/5/1 12/5/1 11/5/1
f 15/3/1 13/3/1 12/3/1
f 15/5/1 12/5/1 14/5/1
f 16/3/1 15/3/1 14/3/1
f 17/3/1 13/3/1 15/3/1
f 17/3/1 15/3/1 16/3/1
f 20/2/1 19/2/1 18/2/1
f 21/2/1 19/2/1 20/2/1
f 24/1/1 21/1/1 20/1/1
f 24/1/1 22/1/1 21/1/1
f 25/1/1 22/1/1 24/1/1
f 26/1/1 22/1/1 25/1/1
f 29/1/1 24/1/1 23/1/1
f 30/1/1 24/1/1 29/1/1
f 31/1/1 26/1/1 25/1/1
f 31/1/1 27/1/1 26/1/1
f 32/1/1 27/1/1 31/1/1
f 33/1/1 30/1/1 29/1/1
f 33/1/1 29/1/1 28/1/1
f 34/1/1 30/1/1 33/1/1
f 37/2/1 35/2/1 34/2/1
f 38/2/1 35/2/1 37/2/1
f 39/5/1 37/5/1 36/5/1
f 40/5/1 37/5/1 39/5/1
f 43/3/1 42/3/1 41/3/1
f 44/3/1 42/3/1 43/3/1
f 45/3/2 46/3/2 47/3/2
f 47/3/2 46/3/2 48/3/2
f 49/2/2 50/2/2 51/2/2
f 51/2/2 50/2/2 52/2/2
f 51/1/2 52/1/2 54/1/2
f 52/1/2 53/1/2 54/1/2
f 54/1/2 53/1/2 55/1/2
f 55/1/2 53/1/2 58/1/2
f 58/1/2 53/1/2 59/1/2
f 56/1/2 57/1/2 62/1/2
f 62/1/2 57/1/2 63/1/2
f 59/1/2 60/1/2 64/1/2
f 58/1/2 59/1/2 64/1/2
f 64/1/2 60/1/2 65/1/2
f 62/1/2 63/1/2 66/1/2
f 61/1/2 62/1/2 66/1/2
f 63/1/2 64/1/2 66/1/2
f 66/1/2 64/1/2 67/1/2
f 67/1/2 64/1/2 68/1/2
f 69/5/2 70/5/2 71/5/2
f 71/5/2 70/5/2 72/5/2
f 73/2/2 74/2/2 75/2/2
f 75/2/2 74/2/2 76/2/2
f 77/2/2 78/2/2 80/2/2
f 80/2/2 78/2/2 81/2/2
f 79/5/2 80/5/2 82/5/2
f 80/3/2 81/3/2 83/3/2
f 82/5/2 80/5/2 83/5/2
f 83/3/2 81/3/2 84/3/2
f 83/3/2 84/3/2 86/3/2
f 84/3/2 85/3/2 86/3/2
f 82/3/2 83/3/2 86/3/2
f 86/3/2 85/3/2 87/3/2
f 88/2/2 89/2/2 90/2/2
f 90/2/2 89/2/2 91/2/2
f 94/1/3 93/1/3 92/1/3
f 95/1/3 93/1/3 94/1/3
f 102/5/3 97/5/3 96/5/3
f 103/3/3 98/3/3 97/3/3
f 103/5/3 97/5/3 102/5/3
f 104/1/3 100/1/3 99/1/3
f 105/1/3 100/1/3 104/1/3
f 106/5/3 102/5/3 101/5/3
f 107/3/3 103/3/3 102/3/3
f 107/5/3 102/5/3 106/5/3
f 108/3/3 98/3/3 103/3/3
f 108/3/3 103/3/3 107/3/3
f 112/1/3 110/1/3 109/1/3
f 117/2/3 112/2/3 111/2/3
f 118/1/3 110/1/3 112/1/3
f 118/2/3 112/2/3 117/2/3
f 119/1/3 110/1/3 118/1/3
f 120/5/3 114/5/3 113/5/3
f 121/5/3 114/5/3 120/5/3
f 122/2/3 116/2/3 115/2/3
f 123/1/3 117/1/3 116/1/3
f 123/2/3 116/2/3 122/2/3
f 124/1/3 117/1/3 123/1/3
f 125/1/3 117/1/3 124/1/3
f 127/2/3 120/2/3 119/2/3
f 128/2/3 125/2/3 124/2/3
f 129/1/3 126/1/3 125/1/3
f 129/2/3 125/2/3 128/2/3
f 130/1/3 126/1/3 129/1/3
f 131/2/3 120/2/3 127/2/3
f 132/2/3 120/2/3 131/2/3
f 133/2/3 130/2/3 129/2/3
f 134/2/3 130/2/3 133/2/3
f 137/3/3 136/3/3 135/3/3
f 138/3/3 136/3/3 137/3/3
f 139/3/4 140/3/4 141/3/4
f 141/3/4 140/3/4 142/3/4
f 143/1/4 144/1/4 146/1/4
f 145/2/4 146/2/4 149/2/4
f 146/1/4 144/1/4 150/1/4
f 149/2/4 146/2/4 150/2/4
f 150/1/4 144/1/4 151/1/4
f 147/2/4 148/2/4 153/2/4
f 153/2/4 148/2/4 154/2/4
f 150/1/4 151/1/4 157/1/4
f 151/2/4 152/2/4 158/2/4
f 157/1/4 151/1/4 158/1/4
f 158/2/4 152/2/4 159/2/4
f 155/2/4 156/2/4 161/2/4
f 156/1/4 157/1/4 162/1/4
f 161/2/4 156/2/4 162/2/4
f 162/1/4 157/1/4 163/1/4
f 158/2/4 159/2/4 164/2/4
f 159/3/4 160/3/4 165/3/4
f 164/2/4 159/2/4 165/2/4
f 165/3/4 160/3/4 166/3/4
f 162/2/4 163/2/4 167/2/4
f 167/2/4 163/2/4 168/2/4
f 169/5/4 170/5/4 174/5/4
f 170/3/4 171/3/4 174/3/4
f 174/3/4 171/3/4 175/3/4
f 172/1/4 173/1/4 176/1/4
f 176/1/4 173/1/4 177/1/4
f 169/5/4 174/5/4 178/5/4
f 174/5/4 175/5/4 178/5/4
f 178/5/4 175/5/4 179/5/4
f 175/3/4 171/3/4 180/3/4
f 179/5/4 175/5/4 180/5/4
f 179/3/4 180/3/4 181/3/4
f 180/3/4 171/3/4 182/3/4
f 181/3/4 180/3/4 182/3/4
f 183/1/4 184/1/4 185/1/4
f 185/1/4 184/1/4 186/1/4
f 189/2/5 188/2/5 187/2/5
f 190/2/5 188/2/5 189/2/5
f 193/1/5 192/1/5 191/1/5
f 194/1/5 192/1/5 193/1/5
f 197/2/5 196/2/5 195/2/5
f 198/2/5 196/2/5 197/2/5
f 202/1/5 200/1/5 199/1/5
f 203/1/5 200/1/5 202/1/5
f 206/2/5 202/2/5 201/2/5
f 207/2/5 202/2/5 206/2/5
f 208/2/5 205/2/5 204/2/5
f 209/2/5 205/2/5 208/2/5
f 212/1/5 211/1/5 210/1/5
f 213/1/5 211/1/5 212/1/5
f 216/1/5 215/1/5 214/1/5
f 217/1/5 215/1/5 216/1/5
f 220/1/5 219/1/5 218/1/5
f 221/1/5 219/1/5 220/1/5
f 224/2/5 223/2/5 222/2/5
f 225/2/5 223/2/5 224/2/5
f 229/5/5 227/5/5 226/5/5
f 230/5/5 227/5/5 229/5/5
f 231/5/5 229/5/5 228/5/5
f 233/5/5 231/5/5 228/5/5
f 233/5/5 232/5/5 231/5/5
f 234/5/5 232/5/5 233/5/5
f 237/5/5 236/5/5 235/5/5
f 238/5/5 236/5/5 237/5/5
f 241/3/5 240/3/5 239/3/5
f 242/3/5 240/3/5 241/3/5
f 243/1/6 244/1/6 247/1/6
f 244/2/6 245/2/6 248/2/6
f 247/1/6 244/1/6 248/1/6
f 248/2/6 245/2/6 249/2/6
f 246/1/6 247/1/6 250/1/6
f 250/1/6 247/1/6 251/1/6
f 252/1/6 253/1/6 255/1/6
f 255/1/6 253/1/6 256/1/6
f 254/1/6 255/1/6 257/1/6
f 257/1/6 255/1/6 258/1/6
f 259/5/6 260/5/6 261/5/6
f 261/5/6 260/5/6 262/5/6
f 263/3/6 264/3/6 265/3/6
f 265/3/6 264/3/6 266/3/6
f 263/3/6 265/3/6 267/3/6
f 266/3/6 264/3/6 268/3/6
f 263/3/6 267/3/6 269/3/6
f 267/3/6 268/3/6 269/3/6
f 268/3/6 264/3/6 270/3/6
f 269/3/6 268/3/6 270/3/6
